<svg xmlns="http://www.w3.org/2000/svg" viewBox="0 0 800 600">
  <!-- Background -->
  <rect width="800" height="600" fill="white"/>
  
  <!-- Wave pattern (representing water/swimming) at the bottom -->
  <path d="M0,500 C100,450 200,550 300,500 C400,450 500,550 600,500 C700,450 800,550 800,500 L800,600 L0,600 Z" fill="#0a2463" opacity="0.2"/>
  <path d="M0,520 C100,470 200,570 300,520 C400,470 500,570 600,520 C700,470 800,570 800,520 L800,600 L0,600 Z" fill="#0a2463" opacity="0.3"/>
  <path d="M0,540 C100,490 200,590 300,540 C400,490 500,590 600,540 C700,490 800,590 800,540 L800,600 L0,600 Z" fill="#0a2463" opacity="0.4"/>
  
  <!-- Swimmer icon - larger and more detailed -->
  <g transform="translate(650, 510) scale(1.8)">
    <!-- Head -->
    <circle cx="20" cy="15" r="7" fill="#0a2463"/>
    <!-- Body -->
    <path d="M20,22 L20,35" stroke="#0a2463" stroke-width="3" stroke-linecap="round"/>
    <!-- Arms in swimming position -->
    <path d="M20,25 Q30,15 40,25" stroke="#0a2463" stroke-width="3" fill="none" stroke-linecap="round"/>
    <path d="M20,25 Q10,35 0,25" stroke="#0a2463" stroke-width="3" fill="none" stroke-linecap="round"/>
    <!-- Legs kicking -->
    <path d="M20,35 L15,45" stroke="#0a2463" stroke-width="3" stroke-linecap="round"/>
    <path d="M20,35 L25,45" stroke="#0a2463" stroke-width="3" stroke-linecap="round"/>
    <!-- Water splash -->
    <path d="M5,20 Q15,18 25,20 Q35,22 45,20" stroke="#0a2463" stroke-width="1" fill="none"/>
  </g>
  
  <!-- Road/path (for running and cycling) -->
  <path d="M0,400 C200,380 400,420 600,390 L800,400 L800,450 C600,440 400,480 200,440 L0,450 Z" fill="#0a2463" opacity="0.15"/>
  <path d="M0,390 L800,390" stroke="#0a2463" stroke-width="1" stroke-dasharray="10,10" opacity="0.5"/>
  <path d="M0,440 L800,440" stroke="#0a2463" stroke-width="1" stroke-dasharray="10,10" opacity="0.5"/>
  
  <!-- Runner icon - larger and more detailed -->
  <g transform="translate(180, 385) scale(1.8)">
    <!-- Head -->
    <circle cx="15" cy="10" r="6" fill="#0a2463"/>
    <!-- Body -->
    <path d="M15,16 L15,30" stroke="#0a2463" stroke-width="3" stroke-linecap="round"/>
    <!-- Arms in running position -->
    <path d="M15,20 L5,15" stroke="#0a2463" stroke-width="3" stroke-linecap="round"/>
    <path d="M15,20 L25,25" stroke="#0a2463" stroke-width="3" stroke-linecap="round"/>
    <!-- Legs in running stride -->
    <path d="M15,30 L5,40" stroke="#0a2463" stroke-width="3" stroke-linecap="round"/>
    <path d="M15,30 L25,35" stroke="#0a2463" stroke-width="3" stroke-linecap="round"/>
    <!-- Motion lines -->
    <path d="M2,40 L0,38" stroke="#0a2463" stroke-width="1" stroke-linecap="round"/>
    <path d="M3,37 L1,35" stroke="#0a2463" stroke-width="1" stroke-linecap="round"/>
  </g>
  
  <!-- Cyclist icon - larger and more detailed -->
  <g transform="translate(430, 370) scale(1.8)">
    <!-- Bicycle wheels -->
    <circle cx="10" cy="35" r="10" fill="none" stroke="#0a2463" stroke-width="2"/>
    <circle cx="40" cy="35" r="10" fill="none" stroke="#0a2463" stroke-width="2"/>
    <!-- Spokes -->
    <line x1="10" y1="25" x2="10" y2="45" stroke="#0a2463" stroke-width="1"/>
    <line x1="0" y1="35" x2="20" y2="35" stroke="#0a2463" stroke-width="1"/>
    <line x1="40" y1="25" x2="40" y2="45" stroke="#0a2463" stroke-width="1"/>
    <line x1="30" y1="35" x2="50" y2="35" stroke="#0a2463" stroke-width="1"/>
    <!-- Bicycle frame -->
    <path d="M10,35 L25,15 L40,35" stroke="#0a2463" stroke-width="2" fill="none"/>
    <path d="M25,15 L36,15" stroke="#0a2463" stroke-width="2" stroke-linecap="round"/>
    <path d="M25,15 L25,25" stroke="#0a2463" stroke-width="2"/>
    <path d="M25,25 L40,35" stroke="#0a2463" stroke-width="2"/>
    <!-- Cyclist body -->
    <circle cx="25" cy="10" r="5" fill="#0a2463"/> <!-- Head -->
    <path d="M25,15 L20,25" stroke="#0a2463" stroke-width="2"/> <!-- Body -->
    <path d="M22,20 L15,22" stroke="#0a2463" stroke-width="2"/> <!-- Arm -->
    <path d="M20,25 L25,35" stroke="#0a2463" stroke-width="2"/> <!-- Leg -->
    <path d="M25,25 L35,25" stroke="#0a2463" stroke-width="2"/> <!-- Pedal crank -->
  </g>
  
  <!-- Abstract curved lines suggesting movement and energy -->
  <path d="M0,100 C200,150 400,50 600,120 S800,150 800,100" stroke="#0a2463" stroke-width="2" fill="none" opacity="0.3"/>
  <path d="M0,130 C300,180 500,80 800,130" stroke="#0a2463" stroke-width="2" fill="none" opacity="0.2"/>
  <path d="M0,160 C200,210 600,110 800,160" stroke="#0a2463" stroke-width="1" fill="none" opacity="0.1"/>
  
  <!-- Abstract circles representing activity/motion -->
  <circle cx="100" cy="200" r="40" fill="#0a2463" opacity="0.05"/>
  <circle cx="150" cy="250" r="60" fill="#0a2463" opacity="0.03"/>
  <circle cx="650" cy="150" r="70" fill="#0a2463" opacity="0.04"/>
  <circle cx="700" cy="200" r="50" fill="#0a2463" opacity="0.06"/>
  
  <!-- Small icons scattered around -->
  <g opacity="0.2">
    <circle cx="300" cy="180" r="5" fill="#0a2463"/>
    <circle cx="320" cy="220" r="3" fill="#0a2463"/>
    <circle cx="280" cy="230" r="4" fill="#0a2463"/>
    <circle cx="550" cy="280" r="5" fill="#0a2463"/>
    <circle cx="580" cy="250" r="3" fill="#0a2463"/>
    <circle cx="530" cy="240" r="4" fill="#0a2463"/>
    <circle cx="400" cy="150" r="5" fill="#0a2463"/>
    <circle cx="420" cy="180" r="3" fill="#0a2463"/>
    <circle cx="380" cy="190" r="4" fill="#0a2463"/>
  </g>
</svg>
